<mxfile host="app.diagrams.net" agent="Mozilla/5.0 (Windows NT 10.0; Win64; x64) AppleWebKit/537.36 (KHTML, like Gecko) Chrome/131.0.0.0 Safari/537.36" version="26.0.5">
  <diagram name="Página-1" id="fEGu2ZzXD5keCbmfQBhe">
    <mxGraphModel dx="1687" dy="918" grid="1" gridSize="10" guides="1" tooltips="1" connect="1" arrows="1" fold="1" page="1" pageScale="1" pageWidth="1169" pageHeight="827" math="0" shadow="0">
      <root>
        <mxCell id="0" />
        <mxCell id="1" parent="0" />
        <mxCell id="4HJFw4jwz3x5xviShZuk-4" style="edgeStyle=orthogonalEdgeStyle;rounded=0;orthogonalLoop=1;jettySize=auto;html=1;entryX=0.5;entryY=0;entryDx=0;entryDy=0;" parent="1" source="4HJFw4jwz3x5xviShZuk-1" target="fBtnK7dn837tTitUxVFr-2" edge="1">
          <mxGeometry relative="1" as="geometry">
            <mxPoint x="505.05999999999995" y="133" as="targetPoint" />
          </mxGeometry>
        </mxCell>
        <mxCell id="4HJFw4jwz3x5xviShZuk-1" value="INICIO" style="strokeWidth=2;html=1;shape=mxgraph.flowchart.start_1;whiteSpace=wrap;" parent="1" vertex="1">
          <mxGeometry x="455.06000000000006" y="10" width="100" height="60" as="geometry" />
        </mxCell>
        <mxCell id="4HJFw4jwz3x5xviShZuk-2" value="FIM" style="strokeWidth=2;html=1;shape=mxgraph.flowchart.start_1;whiteSpace=wrap;" parent="1" vertex="1">
          <mxGeometry x="456.0800000000001" y="759" width="100" height="60" as="geometry" />
        </mxCell>
        <mxCell id="4HJFw4jwz3x5xviShZuk-5" value="N != 0" style="strokeWidth=2;html=1;shape=mxgraph.flowchart.decision;whiteSpace=wrap;" parent="1" vertex="1">
          <mxGeometry x="452.0800000000001" y="250" width="107.5" height="60" as="geometry" />
        </mxCell>
        <mxCell id="fBtnK7dn837tTitUxVFr-12" style="edgeStyle=orthogonalEdgeStyle;rounded=0;orthogonalLoop=1;jettySize=auto;html=1;" edge="1" parent="1" source="4HJFw4jwz3x5xviShZuk-7" target="4HJFw4jwz3x5xviShZuk-19">
          <mxGeometry relative="1" as="geometry" />
        </mxCell>
        <mxCell id="4HJFw4jwz3x5xviShZuk-7" value="N" style="shape=parallelogram;html=1;strokeWidth=2;perimeter=parallelogramPerimeter;whiteSpace=wrap;rounded=1;arcSize=12;size=0.23;" parent="1" vertex="1">
          <mxGeometry x="455.83000000000004" y="527" width="100" height="40" as="geometry" />
        </mxCell>
        <mxCell id="fBtnK7dn837tTitUxVFr-3" style="edgeStyle=orthogonalEdgeStyle;rounded=0;orthogonalLoop=1;jettySize=auto;html=1;exitX=0;exitY=0.5;exitDx=0;exitDy=0;exitPerimeter=0;" edge="1" parent="1" source="4HJFw4jwz3x5xviShZuk-11" target="4HJFw4jwz3x5xviShZuk-15">
          <mxGeometry relative="1" as="geometry" />
        </mxCell>
        <mxCell id="fBtnK7dn837tTitUxVFr-4" style="edgeStyle=orthogonalEdgeStyle;rounded=0;orthogonalLoop=1;jettySize=auto;html=1;entryX=0.5;entryY=0;entryDx=0;entryDy=0;" edge="1" parent="1" source="4HJFw4jwz3x5xviShZuk-11" target="4HJFw4jwz3x5xviShZuk-16">
          <mxGeometry relative="1" as="geometry">
            <Array as="points">
              <mxPoint x="621.0200000000001" y="377" />
            </Array>
          </mxGeometry>
        </mxCell>
        <mxCell id="4HJFw4jwz3x5xviShZuk-11" value="N % 2 == 0" style="strokeWidth=2;html=1;shape=mxgraph.flowchart.decision;whiteSpace=wrap;" parent="1" vertex="1">
          <mxGeometry x="452.0800000000001" y="347" width="107.5" height="60" as="geometry" />
        </mxCell>
        <mxCell id="4HJFw4jwz3x5xviShZuk-12" style="edgeStyle=orthogonalEdgeStyle;rounded=0;orthogonalLoop=1;jettySize=auto;html=1;entryX=0.5;entryY=0;entryDx=0;entryDy=0;entryPerimeter=0;exitX=0.5;exitY=1;exitDx=0;exitDy=0;exitPerimeter=0;" parent="1" source="4HJFw4jwz3x5xviShZuk-5" target="4HJFw4jwz3x5xviShZuk-11" edge="1">
          <mxGeometry relative="1" as="geometry" />
        </mxCell>
        <mxCell id="fBtnK7dn837tTitUxVFr-11" value="SIM" style="edgeLabel;html=1;align=center;verticalAlign=middle;resizable=0;points=[];" vertex="1" connectable="0" parent="4HJFw4jwz3x5xviShZuk-12">
          <mxGeometry x="-0.2819" relative="1" as="geometry">
            <mxPoint as="offset" />
          </mxGeometry>
        </mxCell>
        <mxCell id="4HJFw4jwz3x5xviShZuk-15" value="ADD 1 TO VARPAR" style="rounded=1;whiteSpace=wrap;html=1;absoluteArcSize=1;arcSize=14;strokeWidth=2;" parent="1" vertex="1">
          <mxGeometry x="331.02000000000004" y="407" width="130" height="30" as="geometry" />
        </mxCell>
        <mxCell id="4HJFw4jwz3x5xviShZuk-16" value="ADD 1 TO VARIMPAR" style="rounded=1;whiteSpace=wrap;html=1;absoluteArcSize=1;arcSize=14;strokeWidth=2;" parent="1" vertex="1">
          <mxGeometry x="556.0800000000002" y="397" width="130" height="30" as="geometry" />
        </mxCell>
        <mxCell id="4HJFw4jwz3x5xviShZuk-22" style="edgeStyle=orthogonalEdgeStyle;rounded=0;orthogonalLoop=1;jettySize=auto;html=1;entryX=0;entryY=0.5;entryDx=0;entryDy=0;exitX=0;exitY=0.5;exitDx=0;exitDy=0;exitPerimeter=0;entryPerimeter=0;" parent="1" source="4HJFw4jwz3x5xviShZuk-19" target="4HJFw4jwz3x5xviShZuk-5" edge="1">
          <mxGeometry relative="1" as="geometry">
            <Array as="points">
              <mxPoint x="301.08000000000004" y="610" />
              <mxPoint x="301.08000000000004" y="280" />
            </Array>
          </mxGeometry>
        </mxCell>
        <mxCell id="4HJFw4jwz3x5xviShZuk-30" style="edgeStyle=orthogonalEdgeStyle;rounded=0;orthogonalLoop=1;jettySize=auto;html=1;" parent="1" source="4HJFw4jwz3x5xviShZuk-19" target="4HJFw4jwz3x5xviShZuk-26" edge="1">
          <mxGeometry relative="1" as="geometry" />
        </mxCell>
        <mxCell id="4HJFw4jwz3x5xviShZuk-19" value="" style="strokeWidth=1;html=1;shape=mxgraph.flowchart.start_1;whiteSpace=wrap;" parent="1" vertex="1">
          <mxGeometry x="495.8300000000001" y="600" width="20" height="20" as="geometry" />
        </mxCell>
        <mxCell id="4HJFw4jwz3x5xviShZuk-33" style="edgeStyle=orthogonalEdgeStyle;rounded=0;orthogonalLoop=1;jettySize=auto;html=1;" parent="1" source="4HJFw4jwz3x5xviShZuk-26" target="4HJFw4jwz3x5xviShZuk-32" edge="1">
          <mxGeometry relative="1" as="geometry" />
        </mxCell>
        <mxCell id="4HJFw4jwz3x5xviShZuk-26" value="" style="strokeWidth=1;html=1;shape=mxgraph.flowchart.start_1;whiteSpace=wrap;" parent="1" vertex="1">
          <mxGeometry x="496.0800000000001" y="640" width="20" height="20" as="geometry" />
        </mxCell>
        <mxCell id="4HJFw4jwz3x5xviShZuk-27" style="edgeStyle=orthogonalEdgeStyle;rounded=0;orthogonalLoop=1;jettySize=auto;html=1;entryX=1;entryY=0.5;entryDx=0;entryDy=0;entryPerimeter=0;exitX=1;exitY=0.5;exitDx=0;exitDy=0;exitPerimeter=0;" parent="1" source="4HJFw4jwz3x5xviShZuk-5" target="4HJFw4jwz3x5xviShZuk-26" edge="1">
          <mxGeometry relative="1" as="geometry">
            <Array as="points">
              <mxPoint x="696.0800000000002" y="280" />
              <mxPoint x="696.0800000000002" y="650" />
            </Array>
          </mxGeometry>
        </mxCell>
        <mxCell id="4HJFw4jwz3x5xviShZuk-28" value="NÃO" style="edgeLabel;html=1;align=center;verticalAlign=middle;resizable=0;points=[];" parent="4HJFw4jwz3x5xviShZuk-27" vertex="1" connectable="0">
          <mxGeometry x="-0.8548" relative="1" as="geometry">
            <mxPoint y="1" as="offset" />
          </mxGeometry>
        </mxCell>
        <mxCell id="4HJFw4jwz3x5xviShZuk-34" style="edgeStyle=orthogonalEdgeStyle;rounded=0;orthogonalLoop=1;jettySize=auto;html=1;" parent="1" source="4HJFw4jwz3x5xviShZuk-32" target="4HJFw4jwz3x5xviShZuk-2" edge="1">
          <mxGeometry relative="1" as="geometry">
            <mxPoint x="506.1033333333333" y="770" as="targetPoint" />
          </mxGeometry>
        </mxCell>
        <mxCell id="4HJFw4jwz3x5xviShZuk-32" value="VARPAR&lt;div&gt;VARIMPAR&lt;/div&gt;" style="strokeWidth=2;html=1;shape=mxgraph.flowchart.display;whiteSpace=wrap;" parent="1" vertex="1">
          <mxGeometry x="456.08000000000015" y="690" width="100" height="50" as="geometry" />
        </mxCell>
        <mxCell id="fBtnK7dn837tTitUxVFr-14" style="edgeStyle=orthogonalEdgeStyle;rounded=0;orthogonalLoop=1;jettySize=auto;html=1;entryX=0.5;entryY=0;entryDx=0;entryDy=0;" edge="1" parent="1" source="fBtnK7dn837tTitUxVFr-2" target="fBtnK7dn837tTitUxVFr-13">
          <mxGeometry relative="1" as="geometry" />
        </mxCell>
        <mxCell id="fBtnK7dn837tTitUxVFr-2" value="N" style="shape=parallelogram;html=1;strokeWidth=2;perimeter=parallelogramPerimeter;whiteSpace=wrap;rounded=1;arcSize=12;size=0.23;" vertex="1" parent="1">
          <mxGeometry x="455.06" y="110" width="100" height="30" as="geometry" />
        </mxCell>
        <mxCell id="fBtnK7dn837tTitUxVFr-10" style="edgeStyle=orthogonalEdgeStyle;rounded=0;orthogonalLoop=1;jettySize=auto;html=1;" edge="1" parent="1" source="fBtnK7dn837tTitUxVFr-7" target="4HJFw4jwz3x5xviShZuk-7">
          <mxGeometry relative="1" as="geometry" />
        </mxCell>
        <mxCell id="fBtnK7dn837tTitUxVFr-7" value="" style="strokeWidth=1;html=1;shape=mxgraph.flowchart.start_1;whiteSpace=wrap;" vertex="1" parent="1">
          <mxGeometry x="496.0800000000001" y="467" width="20" height="20" as="geometry" />
        </mxCell>
        <mxCell id="fBtnK7dn837tTitUxVFr-8" style="edgeStyle=orthogonalEdgeStyle;rounded=0;orthogonalLoop=1;jettySize=auto;html=1;entryX=0;entryY=0.5;entryDx=0;entryDy=0;entryPerimeter=0;exitX=0.5;exitY=1;exitDx=0;exitDy=0;" edge="1" parent="1" source="4HJFw4jwz3x5xviShZuk-15" target="fBtnK7dn837tTitUxVFr-7">
          <mxGeometry relative="1" as="geometry" />
        </mxCell>
        <mxCell id="fBtnK7dn837tTitUxVFr-9" style="edgeStyle=orthogonalEdgeStyle;rounded=0;orthogonalLoop=1;jettySize=auto;html=1;entryX=1;entryY=0.5;entryDx=0;entryDy=0;entryPerimeter=0;" edge="1" parent="1" source="4HJFw4jwz3x5xviShZuk-16" target="fBtnK7dn837tTitUxVFr-7">
          <mxGeometry relative="1" as="geometry">
            <Array as="points">
              <mxPoint x="621.0200000000001" y="477" />
            </Array>
          </mxGeometry>
        </mxCell>
        <mxCell id="fBtnK7dn837tTitUxVFr-15" style="edgeStyle=orthogonalEdgeStyle;rounded=0;orthogonalLoop=1;jettySize=auto;html=1;" edge="1" parent="1" source="fBtnK7dn837tTitUxVFr-13" target="4HJFw4jwz3x5xviShZuk-5">
          <mxGeometry relative="1" as="geometry" />
        </mxCell>
        <mxCell id="fBtnK7dn837tTitUxVFr-13" value="varpar = varimpar = 0" style="shape=parallelogram;html=1;strokeWidth=2;perimeter=parallelogramPerimeter;whiteSpace=wrap;rounded=1;arcSize=12;size=0.23;" vertex="1" parent="1">
          <mxGeometry x="417.58" y="180" width="174.96" height="30" as="geometry" />
        </mxCell>
      </root>
    </mxGraphModel>
  </diagram>
</mxfile>
